<svg id="Layer_1" data-name="Layer 1" xmlns="http://www.w3.org/2000/svg" xmlns:xlink="http://www.w3.org/1999/xlink" viewBox="0 0 505 907.5"><defs><style>.cls-1{fill:none;}.cls-2{fill:#c19d85;}.cls-3{opacity:0.27;}.cls-4{fill:#5c2c1d;}.cls-5{clip-path:url(#clip-path);}.cls-6{opacity:0.08;}.cls-7{clip-path:url(#clip-path-2);}.cls-8{fill:#40291e;}.cls-9{fill:#fff;}.cls-10{clip-path:url(#clip-path-3);}.cls-11{fill:#301d18;}.cls-12{fill:#a37f66;}.cls-13{clip-path:url(#clip-path-4);}.cls-14{fill:#1a0b08;}.cls-15{fill:#8e5c5a;}.cls-16{fill:#774a46;}.cls-17{fill:#191212;}</style><clipPath id="clip-path"><path class="cls-1" d="M488.18,390.34s-8,309.41-59.09,378.17c0,0-67.08,127.2-166.09,127.2V189.22S488.18,163.44,488.18,390.34Z"/></clipPath><clipPath id="clip-path-2"><path class="cls-1" d="M37.82,390.34s8,309.41,59.09,378.17c0,0,67.08,127.2,166.09,127.2V189.22S37.82,163.44,37.82,390.34Z"/></clipPath><clipPath id="clip-path-3"><path class="cls-1" d="M323.36,520.75s6.63,10.39,59.35,10.66c36.1.19,45.35-14.89,45.35-14.89s1.4-16-50.33-17.65C353.1,498.1,326.45,515.72,323.36,520.75Z"/></clipPath><clipPath id="clip-path-4"><path class="cls-1" d="M203,524.3s-5.54,11-58,16.63c-35.89,3.85-46.62-10.21-46.62-10.21s-3-15.8,48.28-22.67C171.13,504.79,199.43,519.62,203,524.3Z"/></clipPath></defs><title>Artboard 1</title><path class="cls-2" d="M482.26,501.85l10.63-8.29,6.11,8.29V613.51s3.42,35.35-35,45.18L475.27,508Z"/><path class="cls-3" d="M472.71,597.56s9.56,34.52,21.4,38.23c0,0-7.26,20.71-34.38,22.9Z"/><polygon class="cls-4" points="480.91 526.27 494 509.99 494 552.61 480.91 526.27"/><polygon class="cls-4" points="494.11 603.58 481.02 614.28 487.57 621.15 494.11 603.58"/><polygon class="cls-4" points="474.41 583.14 481.02 573.78 477.72 556.98 474.41 583.14"/><path class="cls-2" d="M44.74,501.85l-10.63-8.29L28,501.85V613.51s-3.42,35.35,35,45.18L51.73,508Z"/><path class="cls-3" d="M53.85,597.56s-9.56,34.52-21.4,38.23c0,0,7.26,20.71,34.38,22.9Z"/><polygon class="cls-4" points="45.09 526.27 32 509.99 32 552.61 45.09 526.27"/><polygon class="cls-4" points="32.45 603.58 45.53 614.28 38.99 621.15 32.45 603.58"/><polygon class="cls-4" points="52.14 583.14 45.53 573.78 48.84 556.98 52.14 583.14"/><path class="cls-2" d="M262.72,189.22S37.54,163.44,37.54,390.34c0,0,8,309.41,59.09,378.17,0,0,67.08,127.2,166.09,127.2s166.09-127.2,166.09-127.2c51.11-68.76,59.09-378.17,59.09-378.17C487.91,163.44,262.72,189.22,262.72,189.22Z"/><g class="cls-5"><path class="cls-1" d="M488.18,390.34s-8,309.41-59.09,378.17c0,0-67.08,127.2-166.09,127.2V189.22S488.18,163.44,488.18,390.34Z"/><path class="cls-6" d="M404.33,250.39s37.8,137.74,2.29,188.92c0,0,59.23,97,42.42,123.77,0,0-25.66,3.82-20.85,4.2s56.76,14.94,13.21,70.29c0,0-19.74,169.65-89.71,223.68l88.95-36.88,82.51-289.75s-3.52-219.23-8.67-222.14S458.2,246,458.2,246Z"/></g><g class="cls-7"><path class="cls-1" d="M37.82,390.34s8,309.41,59.09,378.17c0,0,67.08,127.2,166.09,127.2V189.22S37.82,163.44,37.82,390.34Z"/><path class="cls-6" d="M61.1,359.17s12.81,34.38,41.84,48.9c0,0-77.17,88.19-15.28,144.94,0,0-34.38,55.64-13.75,90.58,0,0,11.46,22,18.34,25.77,0,0,11.57,73.35,47.42,96.27L161,796H144.19L178,859s-73.13,32.74-79.42,30.45S-11.67,830.57-24.66,784.73s-19.1-286.51,0-307.14,45.84-76.4,52-84.81S61.1,359.17,61.1,359.17Z"/></g><path class="cls-8" d="M439,511.7s-12.17,3.8-13.72,9v-11S435.78,513.2,439,511.7Z"/><path class="cls-9" d="M322.5,521.75s11.42,6,60.21,9.66c36,2.7,45.35-15.32,45.35-15.32s-1.68-18.84-50.33-17.22C353.1,499.7,325.58,516.72,322.5,521.75Z"/><g class="cls-10"><path class="cls-1" d="M323.37,518.76s6.62,12.38,59.34,12.65c36.1.19,45.35-14.89,45.35-14.89s1.4-16-50.33-17.65C353.1,498.1,326.46,513.73,323.37,518.76Z"/><circle class="cls-11" cx="378" cy="516" r="20" transform="translate(-139.97 891.3) rotate(-89.7)"/></g><path class="cls-8" d="M323.13,520.75a62,62,0,0,1,12.25-10.21,80.41,80.41,0,0,1,14.28-7.35,84.8,84.8,0,0,1,15.49-4.49,94.43,94.43,0,0,1,16.07-1.51c5.32,0,10.65.11,16,.64a48.15,48.15,0,0,1,15.76,4,62.24,62.24,0,0,1,7.09,3.89c1.13.72,2.24,1.49,3.31,2.08a25,25,0,0,0,3.49,1.56,36.16,36.16,0,0,0,15.44,2,33,33,0,0,1-15.95-.37,24.87,24.87,0,0,1-3.86-1.4c-1.29-.61-2.41-1.27-3.56-1.89a70.21,70.21,0,0,0-7-3.36,45.46,45.46,0,0,0-7.34-2.22,58.3,58.3,0,0,0-7.66-1c-5.18-.42-10.45-.48-15.71-.44a95.15,95.15,0,0,0-30.65,5.07A92.88,92.88,0,0,0,336.24,512,77.41,77.41,0,0,0,323.13,520.75Z"/><path class="cls-8" d="M335.32,498.65a26.34,26.34,0,0,1,5.89-4.62c1.08-.63,2.18-1.26,3.31-1.79s2.27-1.07,3.43-1.56a80.35,80.35,0,0,1,14.45-4.24c2.47-.44,4.94-.93,7.44-1.17,1.25-.14,2.49-.32,3.74-.43l3.75-.28c2.5-.24,5-.2,7.51-.27s5,.06,7.56.11a82.94,82.94,0,0,1,15,2.41,57.46,57.46,0,0,1,14.08,5.8,39.82,39.82,0,0,1,6.21,4.52,17.43,17.43,0,0,1,1.4,1.43c.38.46.78.91,1.19,1.36.82.89,1.69,1.75,2.58,2.57a29.38,29.38,0,0,0,5.83,4.33,10.56,10.56,0,0,0,7,1.49,8.64,8.64,0,0,1-3.73.38,14.77,14.77,0,0,1-3.68-1,29,29,0,0,1-6.51-3.91c-1-.78-2-1.61-2.89-2.47-.46-.43-.92-.87-1.37-1.34a15.7,15.7,0,0,0-1.3-1.13,41.18,41.18,0,0,0-6-3.88c-8.6-4.44-18.28-6.48-28-7.12-4.85-.25-9.78-.23-14.68,0l-3.68.15c-1.22.07-2.44.2-3.66.3-2.45.17-4.87.53-7.31.82a95.33,95.33,0,0,0-14.33,3.19C343.88,493.75,339.24,495.58,335.32,498.65Z"/><path class="cls-12" d="M322.5,521.75s19.12,5.94,105.56-5.65C428.06,516.1,406,567,322.5,521.75Z"/><path class="cls-8" d="M384.5,545l14.22-1.33c4.72-.49,9.43-1,14.06-1.86a48.28,48.28,0,0,0,6.8-1.62l1.63-.56,1.69-.65c1.13-.42,2.27-.81,3.43-1.15a50,50,0,0,1,14.17-2.32,81,81,0,0,0-13.68,3.8c-1.1.41-2.19.86-3.28,1.3l-1.62.7-1.72.68a46.84,46.84,0,0,1-7.06,1.8,106.42,106.42,0,0,1-14.31,1.45A123.51,123.51,0,0,1,384.5,545Z"/><path class="cls-8" d="M87,527s12.5,2.54,14.56,7.61l-1.12-11S90.41,528.2,87,527Z"/><path class="cls-9" d="M204,525.21s-10.75,7.13-58.92,15.73c-35.54,6.34-46.67-10.64-46.67-10.64s-.24-18.92,48.33-22.24C171.29,506.38,200.39,520.52,204,525.21Z"/><g class="cls-13"><path class="cls-1" d="M202.79,522.33s-5.33,13-57.75,18.61c-35.89,3.85-46.62-10.21-46.62-10.21s-3-15.8,48.28-22.67C171.13,504.79,199.22,517.64,202.79,522.33Z"/><circle class="cls-11" cx="148.17" cy="525.13" r="20" transform="translate(-55.17 18.8) rotate(-6.12)"/></g><path class="cls-8" d="M203.24,524.28a77.42,77.42,0,0,0-13.93-7.4,92.89,92.89,0,0,0-14.91-4.8,95.15,95.15,0,0,0-31-1.93c-5.24.5-10.47,1.1-15.58,2a58.29,58.29,0,0,0-7.52,1.8,45.46,45.46,0,0,0-7.08,2.95,70.23,70.23,0,0,0-6.64,4.06c-1.08.73-2.13,1.51-3.35,2.25a24.88,24.88,0,0,1-3.7,1.79,33,33,0,0,1-15.83,2,36.16,36.16,0,0,0,15.16-3.51,25,25,0,0,0,3.32-1.91c1-.7,2-1.58,3.08-2.4a62.25,62.25,0,0,1,6.66-4.59A48.15,48.15,0,0,1,127.19,509c5.29-1.07,10.58-1.7,15.87-2.26a94.42,94.42,0,0,1,16.14-.12,84.8,84.8,0,0,1,15.86,2.89,80.4,80.4,0,0,1,15,5.86A62,62,0,0,1,203.24,524.28Z"/><path class="cls-8" d="M188.87,503.54c-4.21-2.66-9-4-13.79-5a95.34,95.34,0,0,0-14.58-1.72c-2.45,0-4.9-.15-7.35-.07-1.23,0-2.45,0-3.68.07l-3.67.22c-4.89.29-9.81.77-14.6,1.51-9.57,1.62-19,4.63-27.09,9.92a41.17,41.17,0,0,0-5.62,4.48,15.69,15.69,0,0,0-1.17,1.26c-.4.51-.81,1-1.23,1.47-.84,1-1.71,1.87-2.62,2.75A29,29,0,0,1,87.37,523a14.77,14.77,0,0,1-3.55,1.37,8.64,8.64,0,0,1-3.75,0,10.56,10.56,0,0,0,6.81-2.19,29.38,29.38,0,0,0,5.36-4.9c.8-.91,1.58-1.85,2.31-2.82.36-.48.72-1,1.05-1.47a17.44,17.44,0,0,1,1.25-1.56,39.83,39.83,0,0,1,5.72-5.12A57.47,57.47,0,0,1,116,499.07a82.94,82.94,0,0,1,14.66-3.92c2.5-.3,5-.73,7.51-.87s5-.47,7.5-.49l3.76-.1c1.25,0,2.51,0,3.76,0,2.51,0,5,.22,7.52.41a80.35,80.35,0,0,1,14.81,2.75c1.2.36,2.4.74,3.57,1.2s2.34.93,3.48,1.44A26.34,26.34,0,0,1,188.87,503.54Z"/><path class="cls-12" d="M204,525.21s-18.41,7.85-105.59,5.09C98.38,530.3,125.49,578.7,204,525.21Z"/><path class="cls-8" d="M144.65,554.64a123.53,123.53,0,0,1-14.23,1.68,106.45,106.45,0,0,1-14.38,0,46.83,46.83,0,0,1-7.21-1.07l-1.78-.5-1.68-.53c-1.13-.33-2.26-.66-3.4-1a81,81,0,0,0-14-2.39,50,50,0,0,1,14.34.87c1.18.22,2.36.49,3.53.8l1.75.48,1.68.4a48.29,48.29,0,0,0,6.93.92c4.69.37,9.43.41,14.18.43Z"/><path class="cls-8" d="M326.79,586.77a53.25,53.25,0,0,1,13.83,10.53,33.64,33.64,0,0,1,8.62,15.43,24.72,24.72,0,0,1,.36,9.09,29.5,29.5,0,0,1-2.7,8.68A49.2,49.2,0,0,1,336,644.57l-.55.52-.82-.07a32.64,32.64,0,0,0-3.54-.11c-1.21,0-2.43.11-3.65.24a47.19,47.19,0,0,0-7.2,1.36,47.85,47.85,0,0,0-13.44,5.86,52.51,52.51,0,0,0-11.28,9.56,70.29,70.29,0,0,0-8.72,12.19l0,.06h0a10.74,10.74,0,0,1-2,1.82,11.16,11.16,0,0,1-2.36,1.26,9.85,9.85,0,0,1-2.57.63,11.29,11.29,0,0,1-2.62,0,11.13,11.13,0,0,0,2.57-.28,9.89,9.89,0,0,0,2.39-.87,10.48,10.48,0,0,0,2.1-1.38,9.92,9.92,0,0,0,1.69-1.79l0,.07a63.21,63.21,0,0,1,8-13.12c.78-1,1.66-2,2.51-3s1.78-1.88,2.75-2.75a48.91,48.91,0,0,1,20.24-11.5,50.51,50.51,0,0,1,7.71-1.53c1.3-.15,2.62-.25,3.93-.29a30,30,0,0,1,4,.11l-1.37.44a47.34,47.34,0,0,0,10.35-13,24.68,24.68,0,0,0,2.63-15.81,33.3,33.3,0,0,0-7.27-14.86A61.69,61.69,0,0,0,326.79,586.77Z"/><path class="cls-8" d="M326.79,643.51A53.79,53.79,0,0,1,319.22,654a70.7,70.7,0,0,1-9.54,8.83,61.41,61.41,0,0,1-11.07,6.88c-1,.46-2,.93-3,1.36l-3.06,1.12-1.54.52c-.53.14-1,.28-1.58.41-1.06.26-2.11.51-3.17.71.93-.56,1.88-1.08,2.81-1.59.47-.26.94-.5,1.41-.75l1.37-.83,2.74-1.59c.88-.59,1.78-1.13,2.67-1.7,3.52-2.3,7-4.67,10.28-7.26s6.57-5.24,9.76-8S323.63,646.47,326.79,643.51Z"/><path class="cls-8" d="M319.92,577.6c-.59,2.56-1.13,5.07-1.59,7.57-.22,1.25-.43,2.5-.58,3.76l-.23,1.88-.13,1.88c-.06.62,0,1.25-.07,1.87a16.62,16.62,0,0,0,0,1.87,36.65,36.65,0,0,0,.31,3.72,29.87,29.87,0,0,0,2.26,7.25,16.37,16.37,0,0,1-4-6.86,25.35,25.35,0,0,1-.81-8,32.63,32.63,0,0,1,1.49-7.81A28.22,28.22,0,0,1,319.92,577.6Z"/><path class="cls-8" d="M277.13,481.34c1,4.95,2.07,9.81,3.29,14.61A140.6,140.6,0,0,0,284.8,510a78.57,78.57,0,0,0,6.26,13.21,55.06,55.06,0,0,0,4.22,6,52.54,52.54,0,0,0,5.16,5.38,29.78,29.78,0,0,1-6.36-4.2,38.67,38.67,0,0,1-5.23-5.66,53.2,53.2,0,0,1-7.26-13.52,73.94,73.94,0,0,1-3.77-14.77A65.49,65.49,0,0,1,277.13,481.34Z"/><path class="cls-8" d="M217,586.77a72.4,72.4,0,0,0-14.7,11c-4.31,4.23-8,9.25-9.48,14.91a19.33,19.33,0,0,0-.22,8.55,23.42,23.42,0,0,0,3.3,8A51.2,51.2,0,0,0,208.31,642l-1.21-.34a52.58,52.58,0,0,1,9,.11,69.86,69.86,0,0,1,8.8,1.34,66,66,0,0,1,16.68,6.07,62,62,0,0,1,14.27,10.47c1,1.08,2.08,2.09,3,3.24l1.44,1.67,1.35,1.74a73.21,73.21,0,0,1,4.81,7.35l-.05-.07a11.42,11.42,0,0,0,2.21,1.88,13.64,13.64,0,0,0,2.63,1.37,14.59,14.59,0,0,0,2.87.83,16.47,16.47,0,0,0,3,.26,16.63,16.63,0,0,1-3.05,0,14,14,0,0,1-3-.58,14.33,14.33,0,0,1-2.85-1.24,12.16,12.16,0,0,1-2.55-1.88h0l0-.06a71.85,71.85,0,0,0-5.27-6.81,65,65,0,0,0-6-6.11A69.66,69.66,0,0,0,247.6,656a65.07,65.07,0,0,0-7.36-4.24,68.86,68.86,0,0,0-24.42-6.66,58.32,58.32,0,0,0-8.37-.1l-.71,0-.5-.39c-5-3.85-9.7-8.24-13.06-13.8a26.47,26.47,0,0,1-3.5-9.11,21.34,21.34,0,0,1,.61-9.78,27.18,27.18,0,0,1,4.4-8.55,42.67,42.67,0,0,1,6.5-6.85,64,64,0,0,1,7.57-5.47A59.23,59.23,0,0,1,217,586.77Z"/><path class="cls-8" d="M217,643.51c3.82,3.07,7.65,6,11.54,8.85s7.88,5.51,11.93,8c2,1.32,4.1,2.46,6.14,3.72s4.17,2.36,6.32,3.44c4.23,2.3,8.65,4.18,13.09,6.3A61.61,61.61,0,0,1,251.82,670l-1.73-.67c-.57-.24-1.12-.52-1.68-.77L245.07,667c-2.17-1.18-4.35-2.33-6.42-3.67a84.1,84.1,0,0,1-11.79-8.88A62.8,62.8,0,0,1,217,643.51Z"/><path class="cls-8" d="M225.32,577.6a26.68,26.68,0,0,1,3.82,7.06,29,29,0,0,1,1.77,7.93,26.52,26.52,0,0,1-.07,4.12,20,20,0,0,1-.92,4,16.34,16.34,0,0,1-1.85,3.68,14.15,14.15,0,0,1-2.76,3,27.45,27.45,0,0,0,1.77-3.5,22.53,22.53,0,0,0,1.11-3.63,27.1,27.1,0,0,0,.43-7.51,48.18,48.18,0,0,0-1.19-7.57C226.84,582.66,226.13,580.15,225.32,577.6Z"/><path class="cls-8" d="M248.07,481.34a60.42,60.42,0,0,1-1.25,15.78,67.47,67.47,0,0,1-4.94,15.17,51,51,0,0,1-8.94,13.33,40.21,40.21,0,0,1-6.07,5.26,34.36,34.36,0,0,1-7,3.74,64,64,0,0,0,5.95-5,56,56,0,0,0,5.11-5.71,70.3,70.3,0,0,0,7.86-13,110.05,110.05,0,0,0,5.46-14.37C245.73,491.52,247,486.49,248.07,481.34Z"/><path class="cls-8" d="M326.79,577.6a258.24,258.24,0,0,1,31.52,22.84,274.86,274.86,0,0,1,28.24,27A196.1,196.1,0,0,1,399,642.61c1.94,2.65,3.82,5.35,5.56,8.15s3.43,5.64,4.92,8.6a68.11,68.11,0,0,1,6.72,18.75,37.65,37.65,0,0,1,.46,10,25.18,25.18,0,0,1-2.77,9.44,32.84,32.84,0,0,0-1-18.65,58.26,58.26,0,0,0-3.54-8.67c-1.4-2.8-2.9-5.56-4.57-8.23-6.71-10.68-14.84-20.5-23.36-30s-17.56-18.58-26.72-27.6S336.17,586.58,326.79,577.6Z"/><path class="cls-8" d="M213.2,577.6c-9.38,9-18.73,17.83-27.94,26.8s-18.18,18.12-26.72,27.6-16.65,19.32-23.36,30c-1.67,2.67-3.17,5.43-4.57,8.23a58.26,58.26,0,0,0-3.54,8.67,32.84,32.84,0,0,0-1,18.65,25.18,25.18,0,0,1-2.77-9.44,37.65,37.65,0,0,1,.46-10,68.11,68.11,0,0,1,6.72-18.75c1.49-3,3.16-5.82,4.92-8.6s3.63-5.5,5.56-8.15a196.1,196.1,0,0,1,12.44-15.2,274.84,274.84,0,0,1,28.24-27A258.23,258.23,0,0,1,213.2,577.6Z"/><path d="M300.43,471.4a45.68,45.68,0,0,1,6.41-9.1,72.1,72.1,0,0,1,8.07-7.79,85.39,85.39,0,0,1,19.22-11.92,97.53,97.53,0,0,1,21.75-6.91,150.9,150.9,0,0,1,22.06-2.62,128.16,128.16,0,0,1,22.4.84A106.34,106.34,0,0,1,422.41,439a86.82,86.82,0,0,1,20.22,10.31,69.35,69.35,0,0,1,8.56,7.35,53.83,53.83,0,0,1,7,8.62c-3.51-1.34-6.63-3-10-4.08-3.22-1.33-6.6-2.24-9.8-3.3a156.75,156.75,0,0,0-19.69-4,229.24,229.24,0,0,0-39.91-1.36c-6.7.3-13.51.77-20.22,1.42q-2.43.3-4.88.54c-1.63.18-3.24.49-4.87.71-.81.14-1.64.21-2.44.37s-1.61.33-2.42.47c-1.63.29-3.27.57-4.86,1a148.41,148.41,0,0,0-19.36,5.7l-2.43.89c-.8.32-1.58.66-2.4,1-1.64.61-3.19,1.37-4.83,2C306.87,468.08,303.66,469.62,300.43,471.4Z"/><path d="M218.22,470.44c-3.44-1.33-6.83-2.41-10.21-3.41-1.72-.44-3.36-1-5.06-1.36-.85-.19-1.67-.43-2.51-.64l-2.53-.55a148.42,148.42,0,0,0-20-3c-1.64-.2-3.3-.26-5-.32-.83,0-1.65-.09-2.46-.14s-1.65,0-2.47,0c-1.65,0-3.28-.09-4.92,0s-3.28.11-4.91.13c-6.74.27-13.55.73-20.23,1.35a229.23,229.23,0,0,0-39.35,6.79,156.78,156.78,0,0,0-19,6.69c-3,1.48-6.25,2.84-9.26,4.6-3.19,1.57-6.05,3.6-9.35,5.41a53.83,53.83,0,0,1,5.77-9.49A69.36,69.36,0,0,1,74.35,468,86.83,86.83,0,0,1,93,455a106.34,106.34,0,0,1,21.16-8.08A128.16,128.16,0,0,1,136.21,443a150.9,150.9,0,0,1,22.21-.41,97.54,97.54,0,0,1,22.49,3.88,85.39,85.39,0,0,1,20.66,9.19,72.11,72.11,0,0,1,9.06,6.61A45.67,45.67,0,0,1,218.22,470.44Z"/><g id="lips_teeth" data-name="lips &amp; teeth"><path id="teeth_bg" data-name="teeth bg" class="cls-14" d="M272,715.13c2-.57,94-17.57,94-17.57l10.31,7-29.51,32.66L272,761.25Z"/><path id="teeth_bg-2" data-name="teeth bg" class="cls-14" d="M273,713.41c-2-.57-110.62-15.85-110.62-15.85l-10.31,7,29.51,32.66L273,761.25Z"/><g id="teeth"><path class="cls-9" d="M265,740.41V722.22s2.48-6.13,15.88-5.77,12.12,12,12.12,12l0,10.25S278.28,747,265,740.41Z"/><path class="cls-9" d="M292.44,736.13c-.21-.92,0-7.69,0-7.69s3.34-17.9,14.13-17,8.79,10.89,8.79,10.89l.15,7.42s-.53,9.48-8.93,9.48S293,738.8,292.44,736.13Z"/><path class="cls-9" d="M315,723.72s8.73-14.61,17-14.61c5.16,0,0,12.61,0,12.61L330,732s-3.43,7.45-15,0Z"/><path class="cls-9" d="M332.42,722.23s4.68-9.74,10.13-10.85c0,0-.57,15.16-1.72,18.34,0,0-3.15,6.33-10.31,2.32Z"/><path class="cls-9" d="M342.09,719.71a8.55,8.55,0,0,1,4.47-6.3l-2.23,11.88s-.28,3.36-3.18,3.19Z"/><path class="cls-9" d="M346.56,718.28s3.54-7.79,11.17-9.17c0,0,1.92,14.25-5.59,16.17-1.75.45-3.16,3.26-6.73,0Z"/></g></g><g id="lips_teeth-2" data-name="lips &amp; teeth"><g id="teeth-2" data-name="teeth"><path class="cls-9" d="M264,740.41V722.22s-2.48-6.13-15.88-5.77-12.12,12-12.12,12l0,10.25S250.72,747,264,740.41Z"/><path class="cls-9" d="M235.91,736.13c.21-.92,0-7.69,0-7.69s-3.34-17.9-14.13-17S213,722.29,213,722.29l-.15,7.42s.53,9.48,8.93,9.48S235.3,738.8,235.91,736.13Z"/><path class="cls-9" d="M213,723.72s-8.73-14.61-17-14.61c-5.16,0,0,12.61,0,12.61L198,732s3.43,7.45,15,0Z"/><path class="cls-9" d="M195.93,722.23s-4.68-9.74-10.13-10.85c0,0,.57,15.16,1.72,18.34,0,0,3.15,6.33,10.31,2.32Z"/><path class="cls-9" d="M186.25,719.71a8.55,8.55,0,0,0-4.47-6.3L184,725.28s.28,3.36,3.18,3.19Z"/><path class="cls-9" d="M181.79,718.28s-3.54-7.79-11.17-9.17c0,0-1.92,14.25,5.59,16.17,1.75.45,3.16,3.26,6.73,0Z"/></g><path class="cls-15" d="M366,697.55s6.11,21.39-26.74,33.62c0,0-48.9,16.81-67.23,15.28-18.34,1.53-82.45-15.28-82.45-15.28-32.85-12.22-26.74-33.62-26.74-33.62l-32.09-4.62c2.29,7.6,5.35,16.08,19.88,26.78S175,739.58,193.75,760.2,272,779.3,272,779.3s44.31,1.53,63-19.1,28.62-29.8,43.15-40.49,17.59-19.17,19.88-26.78Z"/><path class="cls-16" d="M306.76,693c-13.37-.76-34.76,10.7-34.76,10.7s-36.61-11.46-50-10.7-91.3,0-91.3,0,6.85,5.35,22.53,5.37,45.23,7.66,62.54,13.77S272,719.71,272,719.71s23.68-1.53,41-7.64,46.87-13.75,62.54-13.77,22.52-5.37,22.52-5.37S320.13,693.73,306.76,693Z"/></g><path class="cls-8" d="M203.2,798.21A35.73,35.73,0,0,0,218.53,802a29.94,29.94,0,0,0,7.65-.74c2.66-.58,5.39-1.1,8.08-1.51a279.34,279.34,0,0,1,32.54-3c5.45-.17,10.9-.25,16.35-.08s10.92.47,16.37,1.11c2.72.29,5.44.73,8.15,1.19a47.12,47.12,0,0,0,7.78.84,31.91,31.91,0,0,0,7.79-.76,22.49,22.49,0,0,0,3.77-1.21,15.3,15.3,0,0,0,3.51-2,17.87,17.87,0,0,1-6.78,4.68,31.37,31.37,0,0,1-8.14,2.06,48.58,48.58,0,0,1-8.42.07l-4-.25c-1.33-.1-2.67-.1-4-.17s-2.67-.11-4-.11l-4-.08c-2.68,0-5.36,0-8,0-5.36,0-10.74.19-16.11.37-10.74.39-21.5.91-32.21,1.72-2.69.19-5.31.47-8,.74a32.26,32.26,0,0,1-8.52-.16A31.23,31.23,0,0,1,203.2,798.21Z"/><path class="cls-17" d="M51.44,586.77,7.87,353.47S-26.18,216.6,68.94,170.76c79.22-41.65,150.92-149,310.75-168.47,0,0-27.32,54.82-11.46,76.6L399,39s-14.12,48.9-3.43,79.46l21.79-38.2s.85,48.94,13.46,68.42S508.45,223,501.66,320.07s-25,242.49-25,242.49L473.11,447,462.79,424s39.34-201.7-195.68-191.39c0,0-257.77-32.09-206.57,209.93L46.79,457Z"/><path d="M314.95,867.36c-42.59,5-49.95-21.22-49.95-21.22s-7.35,26.19-49.95,21.22S153.44,843,153.44,843s44,47.84,69.82,54.71S265,904.41,265,904.41s15.95.19,41.73-6.69c24.66-6.58,65.55-53.63,69.06-57.71C373.5,842.64,354.74,862.72,314.95,867.36Z"/><path d="M375.8,840l.25-.29Z"/></svg>